<svg width="126" height="126" fill="none" xmlns="http://www.w3.org/2000/svg"><path d="M62.64 0a62.638 62.638 0 1 0 .025 125.275A62.638 62.638 0 0 0 62.64 0zm0 87.342a24.812 24.812 0 1 1 0-49.625 24.812 24.812 0 0 1 0 49.625z" fill="#4DAAA9"/><path d="M37.838 62.542a24.812 24.812 0 0 0 24.8 24.8v37.934A62.624 62.624 0 0 1 0 63.937v-2.598a43.72 43.72 0 0 1 87.426 1.131 24.812 24.812 0 0 0-49.588.072z" fill="url(#paint0_linear_1727_109)"/><defs><linearGradient id="paint0_linear_1727_109" x1="43.731" y1="125.276" x2="43.731" y2="18.919" gradientUnits="userSpaceOnUse"><stop stop-color="#4DAAA9"/><stop offset=".51" stop-color="#4DAAA9"/><stop offset="1" stop-color="#3E8E8B"/></linearGradient></defs></svg>