<svg width="686" height="126" fill="none" xmlns="http://www.w3.org/2000/svg"><path d="M62.74.067a62.737 62.737 0 1 0 .025 125.474A62.737 62.737 0 0 0 62.74.067zm0 87.48a24.851 24.851 0 1 1 0-49.702 24.851 24.851 0 0 1 0 49.702z" fill="#4DAAA9"/><path d="M37.898 62.708a24.852 24.852 0 0 0 24.84 24.84v37.993A62.724 62.724 0 0 1 0 64.105v-2.602a43.789 43.789 0 0 1 87.565 1.132 24.852 24.852 0 0 0-49.667.073z" fill="url(#paint0_linear_1713_311)"/><path d="M182.687 39.131c2.083-2.932 4.939-5.363 8.566-7.292 3.704-2.007 7.91-3.01 12.617-3.01 5.479 0 10.418 1.35 14.817 4.052 4.476 2.7 7.987 6.56 10.534 11.575 2.624 4.94 3.936 10.688 3.936 17.248 0 6.56-1.312 12.386-3.936 17.48-2.547 5.015-6.058 8.912-10.534 11.69-4.399 2.779-9.338 4.168-14.817 4.168-4.707 0-8.874-.965-12.501-2.894-3.55-1.93-6.444-4.36-8.682-7.293v39.705h-16.206V29.87h16.206v9.261zm33.917 22.573c0-3.859-.811-7.177-2.431-9.955-1.544-2.855-3.627-5.016-6.251-6.483-2.547-1.466-5.325-2.199-8.335-2.199-2.932 0-5.71.772-8.334 2.315-2.547 1.467-4.63 3.627-6.251 6.483-1.543 2.855-2.315 6.212-2.315 10.07 0 3.859.772 7.216 2.315 10.071 1.621 2.856 3.704 5.055 6.251 6.598 2.624 1.467 5.402 2.2 8.334 2.2 3.01 0 5.788-.772 8.335-2.315 2.624-1.544 4.707-3.743 6.251-6.599 1.62-2.855 2.431-6.25 2.431-10.186zm24.162 0c0-6.482 1.273-12.232 3.82-17.248 2.624-5.016 6.135-8.874 10.534-11.575 4.476-2.701 9.453-4.052 14.932-4.052 4.785 0 8.952.965 12.502 2.894 3.627 1.93 6.521 4.36 8.682 7.293V29.87h16.321V94h-16.321v-9.376c-2.084 3.01-4.978 5.517-8.682 7.524-3.627 1.93-7.833 2.894-12.617 2.894-5.402 0-10.341-1.39-14.817-4.167-4.399-2.779-7.91-6.676-10.534-11.692-2.547-5.093-3.82-10.92-3.82-17.48zm50.47.231c0-3.935-.772-7.292-2.315-10.07-1.544-2.856-3.627-5.017-6.251-6.483-2.624-1.543-5.441-2.315-8.451-2.315-3.009 0-5.787.733-8.334 2.2-2.547 1.466-4.63 3.627-6.251 6.482-1.543 2.778-2.315 6.096-2.315 9.955 0 3.858.772 7.254 2.315 10.187 1.621 2.855 3.704 5.054 6.251 6.598 2.624 1.543 5.402 2.315 8.334 2.315 3.01 0 5.827-.733 8.451-2.2 2.624-1.543 4.707-3.704 6.251-6.482 1.543-2.855 2.315-6.25 2.315-10.187zm93.5-32.065l-39.704 94.458h-17.248l13.891-31.949-25.698-62.508h18.174l16.553 44.798 16.784-44.798h17.248zm24.942 9.956c2.084-3.396 4.785-6.058 8.103-7.987 3.396-1.93 7.254-2.894 11.576-2.894V45.96h-4.283c-5.094 0-8.952 1.196-11.576 3.589-2.547 2.392-3.82 6.559-3.82 12.501V94h-16.206V29.87h16.206v9.956zm59.07 55.216c-6.173 0-11.73-1.35-16.669-4.052-4.939-2.778-8.836-6.675-11.691-11.691-2.778-5.016-4.167-10.804-4.167-17.364 0-6.56 1.427-12.347 4.283-17.363 2.932-5.016 6.906-8.875 11.923-11.576 5.016-2.778 10.611-4.167 16.784-4.167 6.174 0 11.769 1.39 16.785 4.167 5.016 2.701 8.952 6.56 11.807 11.576 2.933 5.016 4.399 10.804 4.399 17.363 0 6.56-1.505 12.348-4.515 17.364-2.932 5.016-6.945 8.913-12.038 11.691-5.016 2.701-10.65 4.052-16.901 4.052zm0-14.123c2.933 0 5.672-.694 8.219-2.083 2.624-1.466 4.707-3.627 6.251-6.483 1.543-2.855 2.315-6.328 2.315-10.417 0-6.097-1.621-10.766-4.862-14.007-3.164-3.318-7.061-4.978-11.691-4.978-4.63 0-8.528 1.66-11.692 4.978-3.086 3.241-4.63 7.91-4.63 14.006 0 6.097 1.505 10.804 4.515 14.123 3.086 3.24 6.945 4.861 11.575 4.861zM530.295 8.34V94H514.09V8.34h16.205zM562.513 0v94h-16.206V0h16.206zm75.626 60.546c0 2.316-.154 4.4-.463 6.251h-46.882c.386 4.63 2.007 8.258 4.862 10.881 2.856 2.624 6.367 3.936 10.534 3.936 6.019 0 10.302-2.585 12.849-7.756h17.479c-1.852 6.174-5.402 11.267-10.649 15.28-5.248 3.936-11.692 5.904-19.332 5.904-6.173 0-11.73-1.35-16.669-4.052-4.861-2.778-8.681-6.675-11.459-11.691-2.701-5.016-4.052-10.804-4.052-17.364 0-6.636 1.351-12.463 4.052-17.479 2.7-5.016 6.482-8.874 11.344-11.575 4.861-2.701 10.456-4.052 16.784-4.052 6.097 0 11.537 1.312 16.322 3.936 4.862 2.624 8.605 6.366 11.228 11.228 2.701 4.785 4.052 10.302 4.052 16.553zm-16.785-4.63c-.077-4.167-1.582-7.485-4.514-9.955-2.933-2.547-6.521-3.82-10.766-3.82-4.013 0-7.408 1.235-10.186 3.704-2.701 2.393-4.36 5.75-4.978 10.071h30.444zm44.82-16.09c2.083-3.396 4.784-6.058 8.103-7.987 3.395-1.93 7.254-2.894 11.575-2.894V45.96h-4.283c-5.093 0-8.952 1.196-11.575 3.589-2.547 2.392-3.82 6.559-3.82 12.501V94h-16.206V29.87h16.206v9.956z" fill="#040607"/><defs><linearGradient id="paint0_linear_1713_311" x1="43.8" y1="125.541" x2="43.8" y2="19.016" gradientUnits="userSpaceOnUse"><stop stop-color="#4DAAA9"/><stop offset=".51" stop-color="#4DAAA9"/><stop offset="1" stop-color="#3E8E8B"/></linearGradient></defs></svg>